<?xml version="1.0" encoding="UTF-8"?>
<svg version="1.1" xmlns="http://www.w3.org/2000/svg" width="1024" height="1024">
<path d="M0 0 C3.58592537 1.52199335 5.8793792 3.63255749 8.61907959 6.37857056 C9.54172104 7.29846268 10.46436249 8.2183548 11.41496277 9.16612244 C12.43005519 10.18829263 13.44505136 11.21055842 14.45996094 12.23291016 C15.53399927 13.30751273 16.60847838 14.3816749 17.68336487 15.45542908 C20.5986874 18.3701776 23.50780072 21.29105311 26.41584682 24.21305895 C29.45653627 27.26624767 32.50288731 30.31377666 35.54864502 33.36190796 C41.31470672 39.13418678 47.07565104 44.91154509 52.83477902 50.69074094 C59.39186433 57.27017801 65.95462699 63.84393953 72.51787519 70.41722798 C86.01824844 83.93850849 99.51146743 97.46690799 113 111 C111.47800665 114.58592537 109.36744251 116.8793792 106.62142944 119.61907959 C105.70153732 120.54172104 104.7816452 121.46436249 103.83387756 122.41496277 C102.81170737 123.43005519 101.78944158 124.44505136 100.76708984 125.45996094 C99.69248727 126.53399927 98.6183251 127.60847838 97.54457092 128.68336487 C94.6298224 131.5986874 91.70894689 134.50780072 88.78694105 137.41584682 C85.73375233 140.45653627 82.68622334 143.50288731 79.63809204 146.54864502 C73.86581322 152.31470672 68.08845491 158.07565104 62.30925906 163.83477902 C55.72982199 170.39186433 49.15606047 176.95462699 42.58277202 183.51787519 C29.06149151 197.01824844 15.53309201 210.51146743 2 224 C-1.58592537 222.47800665 -3.8793792 220.36744251 -6.61907959 217.62142944 C-7.54172104 216.70153732 -8.46436249 215.7816452 -9.41496277 214.83387756 C-10.43005519 213.81170737 -11.44505136 212.78944158 -12.45996094 211.76708984 C-13.53399927 210.69248727 -14.60847838 209.6183251 -15.68336487 208.54457092 C-18.5986874 205.6298224 -21.50780072 202.70894689 -24.41584682 199.78694105 C-27.45653627 196.73375233 -30.50288731 193.68622334 -33.54864502 190.63809204 C-39.31470672 184.86581322 -45.07565104 179.08845491 -50.83477902 173.30925906 C-57.39186433 166.72982199 -63.95462699 160.15606047 -70.51787519 153.58277202 C-84.01824844 140.06149151 -97.51146743 126.53309201 -111 113 C-109.47800665 109.41407463 -107.36744251 107.1206208 -104.62142944 104.38092041 C-103.70153732 103.45827896 -102.7816452 102.53563751 -101.83387756 101.58503723 C-100.81170737 100.56994481 -99.78944158 99.55494864 -98.76708984 98.54003906 C-97.69248727 97.46600073 -96.6183251 96.39152162 -95.54457092 95.31663513 C-92.6298224 92.4013126 -89.70894689 89.49219928 -86.78694105 86.58415318 C-83.73375233 83.54346373 -80.68622334 80.49711269 -77.63809204 77.45135498 C-71.86581322 71.68529328 -66.08845491 65.92434896 -60.30925906 60.16522098 C-53.72982199 53.60813567 -47.15606047 47.04537301 -40.58277202 40.48212481 C-27.06149151 26.98175156 -13.53309201 13.48853257 0 0 Z " fill="#AE2835" transform="translate(860,400)"/>
<path d="M0 0 C4.95131751 3.222286 8.461258 6.24772025 11.765625 11.171875 C12.37019531 12.06390625 12.97476563 12.9559375 13.59765625 13.875 C14.04496094 14.55046875 14.49226562 15.2259375 14.953125 15.921875 C19.4538736 15.32592608 23.25589216 14.15358575 27.4453125 12.41796875 C28.64414062 11.92490234 29.84296875 11.43183594 31.078125 10.92382812 C32.32818174 10.40247978 33.57818104 9.88099369 34.828125 9.359375 C36.10132552 8.83341036 37.374761 8.3080141 38.6484375 7.78320312 C41.75235511 6.50166138 44.85376322 5.21438696 47.953125 3.921875 C47.3649582 0.89701719 46.71241972 -2.09199114 45.953125 -5.078125 C50.40231154 -5.73461574 54.29871544 -6.08713812 58.2444458 -3.68066406 C60.5628908 -1.6226926 62.68805023 0.53177446 64.8046875 2.796875 C65.98204971 3.99546143 65.98204971 3.99546143 67.18319702 5.21826172 C69.67272133 7.76354645 72.12514056 10.34140656 74.578125 12.921875 C76.26458992 14.65852269 77.95336955 16.39292574 79.64453125 18.125 C83.77456053 22.36499297 87.87470429 26.63224882 91.953125 30.921875 C90.59457983 33.93256645 89.05272577 36.10854994 86.77954102 38.49707031 C85.81196617 39.51767548 85.81196617 39.51767548 84.82484436 40.55889893 C81.85365327 43.63290955 78.87611324 46.70013019 75.88012695 49.75 C74.30803372 51.36023902 72.7476639 52.98201042 71.19946289 54.61523438 C68.95758753 56.97917668 66.68128997 59.30454492 64.39453125 61.625 C63.713871 62.35616028 63.03321075 63.08732056 62.33192444 63.84063721 C58.27935318 67.85936052 55.73178133 69.36191326 49.92553711 69.37792969 C48.26513708 69.26221275 46.60537999 69.12280313 44.953125 68.921875 C45.448125 67.99375 45.943125 67.065625 46.453125 66.109375 C48.16602352 63.05659984 48.16602352 63.05659984 47.953125 59.921875 C43.73825051 58.20626709 39.52070529 56.49746657 35.30053711 54.79492188 C33.86521128 54.21475627 32.43063365 53.63273606 30.99682617 53.04882812 C28.93602179 52.20995448 26.87262066 51.37778261 24.80859375 50.546875 C24.16786423 50.28438965 23.5271347 50.0219043 22.86698914 49.75146484 C20.05404371 48.62586203 18.01594205 47.921875 14.953125 47.921875 C14.458125 48.911875 14.458125 48.911875 13.953125 49.921875 C13.293125 49.921875 12.633125 49.921875 11.953125 49.921875 C11.69402344 50.664375 11.43492187 51.406875 11.16796875 52.171875 C7.78909908 59.82050603 0.9831611 63.84537623 -6.43359375 67.01171875 C-15.75976786 70.25984815 -26.73182133 70.47182221 -35.73828125 66.2421875 C-46.10636993 60.31255303 -52.59000864 52.37647012 -56.34375 41.00390625 C-58.60968374 31.07156337 -57.90725477 22.42853683 -52.80859375 13.57421875 C-40.46662914 -5.0071426 -19.53662245 -10.83310345 0 0 Z " fill="#F8D649" transform="translate(881.046875,480.078125)"/>
<path d="M0 0 C4.44918654 -0.65649074 8.34559044 -1.00901312 12.2913208 1.39746094 C14.6097658 3.4554324 16.73492523 5.60989946 18.8515625 7.875 C19.63647064 8.67405762 20.42137878 9.47311523 21.23007202 10.29638672 C23.71959633 12.84167145 26.17201556 15.41953156 28.625 18 C30.31146492 19.73664769 32.00024455 21.47105074 33.69140625 23.203125 C37.82143553 27.44311797 41.92157929 31.71037382 46 36 C44.64145483 39.01069145 43.09960077 41.18667494 40.82641602 43.57519531 C39.85884117 44.59580048 39.85884117 44.59580048 38.87171936 45.63702393 C35.90052827 48.71103455 32.92298824 51.77825519 29.92700195 54.828125 C28.35490872 56.43836402 26.7945389 58.06013542 25.24633789 59.69335938 C23.00446253 62.05730168 20.72816497 64.38266992 18.44140625 66.703125 C17.760746 67.43428528 17.08008575 68.16544556 16.37879944 68.91876221 C12.32622818 72.93748552 9.77865633 74.44003826 3.97241211 74.45605469 C2.31201208 74.34033775 0.65225499 74.20092813 -1 74 C-0.505 73.071875 -0.01 72.14375 0.5 71.1875 C2.21289852 68.13472484 2.21289852 68.13472484 2 65 C1.10692139 64.64695801 0.21384277 64.29391602 -0.70629883 63.93017578 C-4.02312933 62.61793672 -7.33812446 61.30111528 -10.65258789 59.98291016 C-12.0866622 59.41330044 -13.52122954 58.84493036 -14.95629883 58.27783203 C-17.02035671 57.46192546 -19.08259355 56.64155992 -21.14453125 55.8203125 C-21.78526077 55.56814972 -22.4259903 55.31598694 -23.08613586 55.05618286 C-25.97212207 53.90207883 -28.39923684 52.7338421 -31 51 C-30.67386719 50.175 -30.34773437 49.35 -30.01171875 48.5 C-28.88107205 44.58857358 -28.74056827 41.02817671 -28.8125 37 C-28.8134668 35.97132813 -28.8134668 35.97132813 -28.81445312 34.921875 C-28.84940282 30.85217771 -29.22020246 26.99256341 -30 23 C-26.32393565 20.66993155 -22.64015168 18.92612745 -18.60546875 17.30078125 C-17.40341797 16.81416016 -16.20136719 16.32753906 -14.96289062 15.82617188 C-13.70446361 15.32152348 -12.44599961 14.81696733 -11.1875 14.3125 C-9.90935029 13.79660761 -8.63135387 13.28033526 -7.35351562 12.76367188 C-4.23716364 11.50537126 -1.11930445 10.25095948 2 9 C1.4118332 5.97514219 0.75929472 2.98613386 0 0 Z " fill="#FEFDFD" transform="translate(927,475)"/>
<path d="M0 0 C17 0 17 0 21.56030273 3.8996582 C22.74545142 5.66065621 23.86824723 7.46482696 24.93359375 9.30078125 C25.5484816 10.24809616 26.16336945 11.19541107 26.79689026 12.1714325 C28.73539334 15.18581215 30.58545636 18.24441207 32.4375 21.3125 C33.73471563 23.36222704 35.03740551 25.40850042 36.34570312 27.45117188 C39.20624414 31.93938412 42.01204239 36.456661 44.77293396 41.00679016 C45.81185745 42.6943868 46.9007213 44.35108195 48 46 C48.33 30.82 48.66 15.64 49 0 C53.62 0 58.24 0 63 0 C63 23.1 63 46.2 63 70 C46 70 46 70 41.43969727 66.1003418 C40.25454858 64.33934379 39.13175277 62.53517304 38.06640625 60.69921875 C37.4515184 59.75190384 36.83663055 58.80458893 36.20310974 57.8285675 C34.26460666 54.81418785 32.41454364 51.75558793 30.5625 48.6875 C29.26528437 46.63777296 27.96259449 44.59149958 26.65429688 42.54882812 C23.79375586 38.06061588 20.98795761 33.543339 18.22706604 28.99320984 C17.18814255 27.3056132 16.0992787 25.64891805 15 24 C14.67 39.18 14.34 54.36 14 70 C9.38 70 4.76 70 0 70 C0 46.9 0 23.8 0 0 Z " fill="#000000" transform="translate(198,477)"/>
<path d="M0 0 C5.754375 -0.061875 11.50875 -0.12375 17.4375 -0.1875 C19.23501709 -0.21481201 21.03253418 -0.24212402 22.88452148 -0.27026367 C40.82770466 -0.43055395 40.82770466 -0.43055395 47.8125 5.3125 C54.2822765 13.26108255 55.77119745 18.87628072 55 29 C53.54863342 35.7882815 50.09178362 39.36289044 44.875 43.8125 C43 45 43 45 40 45 C41.89549595 47.6877381 43.79145951 50.37514602 45.6875 53.0625 C46.48317383 54.19075195 46.48317383 54.19075195 47.29492188 55.34179688 C47.82021484 56.08623047 48.34550781 56.83066406 48.88671875 57.59765625 C49.40669434 58.33516113 49.92666992 59.07266602 50.46240234 59.83251953 C51.9267596 61.89675639 53.40965545 63.94659851 54.89453125 65.99609375 C57 69 57 69 57 70 C51.00674696 70.95892049 44.89183983 71.85966626 39 70 C32.69299239 65.27209414 28.74899662 57.44358001 25.2421875 50.5390625 C22.56210766 46.93107331 22.56210766 46.93107331 14 47 C14 54.59 14 62.18 14 70 C9.38 70 4.76 70 0 70 C0 46.9 0 23.8 0 0 Z M14 13 C14 19.93 14 26.86 14 34 C18.269375 34.0928125 18.269375 34.0928125 22.625 34.1875 C23.51010254 34.21481201 24.39520508 34.24212402 25.30712891 34.27026367 C30.28219813 34.32233226 33.7215708 33.82376327 38 31 C40.68309985 26.97535022 40.67651934 23.72707186 40 19 C37.27504089 14.74906379 33.75560173 14.12607236 29 13 C26.35704343 12.8698051 23.70824703 12.82817262 21.0625 12.875 C18.731875 12.91625 16.40125 12.9575 14 13 Z " fill="#000000" transform="translate(413,477)"/>
<path d="M0 0 C41.55429864 0 41.55429864 0 52 9 C59.1867133 16.45405274 61.98503965 25.76711902 62 36 C61.32366419 45.39491932 58.74985285 52.54071552 52.6875 59.75 C37.1444627 72.76277541 20.27067185 70 0 70 C0 46.9 0 23.8 0 0 Z M14 14 C14 27.86 14 41.72 14 56 C27.96651906 57.00053907 27.96651906 57.00053907 40 52 C45.82414741 45.93990632 47.34082937 40.86490647 47.20703125 32.59375 C46.73930509 26.73393551 45.0504453 22.62114902 40.6875 18.625 C32.81098609 12.05205832 24.11828472 14 14 14 Z " fill="#000000" transform="translate(63,477)"/>
<path d="M0 0 C16.17 0 32.34 0 49 0 C49 4.29 49 8.58 49 13 C37.45 13 25.9 13 14 13 C14 17.62 14 22.24 14 27 C24.56 27 35.12 27 46 27 C46 31.62 46 36.24 46 41 C35.44 41 24.88 41 14 41 C14 46.28 14 51.56 14 57 C25.55 57 37.1 57 49 57 C49 61.29 49 65.58 49 70 C32.83 70 16.66 70 0 70 C0 46.9 0 23.8 0 0 Z " fill="#000000" transform="translate(352,477)"/>
<path d="M0 0 C16.17 0 32.34 0 49 0 C49 4.29 49 8.58 49 13 C37.45 13 25.9 13 14 13 C14 17.62 14 22.24 14 27 C24.56 27 35.12 27 46 27 C46 31.62 46 36.24 46 41 C35.44 41 24.88 41 14 41 C14 46.28 14 51.56 14 57 C25.55 57 37.1 57 49 57 C49 61.29 49 65.58 49 70 C32.83 70 16.66 70 0 70 C0 46.9 0 23.8 0 0 Z " fill="#000000" transform="translate(137,477)"/>
<path d="M0 0 C3.88911295 -0.78509196 7.13236267 -0.97819621 11 0 C13.76109765 2.6897284 15.70294343 5.55469056 17.8359375 8.76171875 C27.3288609 22.96683337 43.94743626 32.12063752 60.46142578 35.60742188 C65.23192209 36.34515587 69.99432185 36.33871052 74.8125 36.3125 C76.40916504 36.30512817 76.40916504 36.30512817 78.03808594 36.29760742 C85.40622518 36.18745815 92.05179463 35.60425907 99 33 C99.96292969 32.67128906 100.92585937 32.34257813 101.91796875 32.00390625 C113.91255712 27.51951293 125.88662356 19.67489772 133.06640625 8.8984375 C138.77428822 0.33724193 138.77428822 0.33724193 142.796875 -0.76953125 C145.31011864 -0.75178235 147.53686547 -0.45000704 150 0 C145.88590566 4.903976 141.61472792 9.52535807 137.07666016 14.03686523 C136.4125412 14.70113022 135.74842224 15.3653952 135.06417847 16.04978943 C132.89150441 18.22177269 130.71532128 20.39020279 128.5390625 22.55859375 C127.02284228 24.07294682 125.50684424 25.58752237 123.99105835 27.10231018 C120.01818297 31.07138372 116.04231269 35.03744381 112.0657959 39.00286865 C108.00167446 43.05672562 103.94041378 47.11344637 99.87890625 51.16992188 C91.92205673 59.11607526 83.96203806 67.05904577 76 75 C73.1002659 73.6871304 71.03140736 72.28096589 68.7855835 70.03282166 C68.17426575 69.42569839 67.562948 68.81857513 66.93310547 68.1930542 C65.94479736 67.19631683 65.94479736 67.19631683 64.93652344 66.17944336 C64.23368225 65.47850052 63.53084106 64.77755768 62.80670166 64.05537415 C60.48601199 61.73838791 58.17259827 59.41428244 55.859375 57.08984375 C54.25119875 55.48047563 52.64265293 53.87147673 51.03375244 52.26283264 C47.66490206 48.89241828 44.29943885 45.51866994 40.93652344 42.14233398 C36.61472917 37.80351595 32.28634694 33.47134415 27.95565414 29.14140987 C24.63551872 25.82100328 21.31799014 22.49800271 18.0013504 19.17410469 C16.40546336 17.57502482 14.80896051 15.97655929 13.2118454 14.37870598 C10.98732836 12.1520338 8.76612805 9.92210823 6.54589844 7.69116211 C5.87892944 7.0246463 5.21196045 6.35813049 4.52478027 5.67141724 C0 1.1144755 0 1.1144755 0 0 Z " fill="#0E2763" transform="translate(786,549)"/>
<path d="M0 0 C2.8997341 1.3128696 4.96859264 2.71903411 7.2144165 4.96717834 C7.82573425 5.57430161 8.437052 6.18142487 9.06689453 6.8069458 C10.05520264 7.80368317 10.05520264 7.80368317 11.06347656 8.82055664 C11.76631775 9.52149948 12.46915894 10.22244232 13.19329834 10.94462585 C15.51398801 13.26161209 17.82740173 15.58571756 20.140625 17.91015625 C21.74880125 19.51952437 23.35734707 21.12852327 24.96624756 22.73716736 C28.33509794 26.10758172 31.70056115 29.48133006 35.06347656 32.85766602 C39.38527083 37.19648405 43.71365306 41.52865585 48.04434586 45.85859013 C51.36448128 49.17899672 54.68200986 52.50199729 57.9986496 55.82589531 C59.59453664 57.42497518 61.19103949 59.02344071 62.7881546 60.62129402 C65.01267164 62.8479662 67.23387195 65.07789177 69.45410156 67.30883789 C70.45455505 68.3086116 70.45455505 68.3086116 71.47521973 69.32858276 C76 73.8855245 76 73.8855245 76 75 C73.03 75 70.06 75 67 75 C66.67 75.66 66.34 76.32 66 77 C65.525625 75.88625 65.05125 74.7725 64.5625 73.625 C57.13875368 58.90729313 42.58838543 49.50173721 28 43 C27.24460937 42.64808594 26.48921875 42.29617188 25.7109375 41.93359375 C7.39487798 35.62590178 -14.45361681 37.33954987 -31.75952148 45.58398438 C-40.05030893 49.79184509 -46.55210732 55.36788181 -53 62 C-53.72316406 62.73734375 -54.44632813 63.4746875 -55.19140625 64.234375 C-58.89594802 68.22507135 -61.18146688 71.86531825 -63 77 C-63.33 76.34 -63.66 75.68 -64 75 C-67.3 75 -70.6 75 -74 75 C-69.88590566 70.096024 -65.61472792 65.47464193 -61.07666016 60.96313477 C-60.4125412 60.29886978 -59.74842224 59.6346048 -59.06417847 58.95021057 C-56.89150441 56.77822731 -54.71532128 54.60979721 -52.5390625 52.44140625 C-51.02284228 50.92705318 -49.50684424 49.41247763 -47.99105835 47.89768982 C-44.01818297 43.92861628 -40.04231269 39.96255619 -36.0657959 35.99713135 C-32.00167446 31.94327438 -27.94041378 27.88655363 -23.87890625 23.83007812 C-15.92205673 15.88392474 -7.96203806 7.94095423 0 0 Z " fill="#0E2763" transform="translate(860,400)"/>
<path d="M0 0 C4.95 0 9.9 0 15 0 C18.12516078 6.00521091 20.69881179 12.08379213 23.109375 18.40625 C23.48104797 19.3715564 23.85272095 20.33686279 24.23565674 21.3314209 C25.41085741 24.38618753 26.58051142 27.44304261 27.75 30.5 C28.55041434 32.58347433 29.35119198 34.66680912 30.15234375 36.75 C32.10576631 41.83172746 34.054651 46.9151768 36 52 C38.22093227 49.77906773 38.84033225 48.20604745 39.95532227 45.29077148 C40.3323378 44.31313339 40.70935333 43.3354953 41.09779358 42.32823181 C41.49993576 41.26987625 41.90207794 40.21152069 42.31640625 39.12109375 C42.73292953 38.03868912 43.14945282 36.95628448 43.57859802 35.84107971 C44.91160721 32.37513086 46.23748804 28.90651322 47.5625 25.4375 C48.89199584 21.96527966 50.223008 18.49366046 51.55711365 15.02320862 C52.38803577 12.8608619 53.2161113 10.69741889 54.04115295 8.53282166 C54.41501633 7.55833572 54.7888797 6.58384979 55.17407227 5.57983398 C55.5033522 4.71760727 55.83263214 3.85538055 56.17189026 2.96702576 C57 1 57 1 58 0 C60.53049402 -0.07313567 63.03304837 -0.09247527 65.5625 -0.0625 C66.62887695 -0.05573242 66.62887695 -0.05573242 67.71679688 -0.04882812 C69.47790013 -0.03700864 71.23896036 -0.01907263 73 0 C72.41085908 3.29889522 71.6130943 6.27476604 70.36108398 9.38110352 C70.02660751 10.21710587 69.69213104 11.05310822 69.34751892 11.91444397 C68.98404861 12.81021652 68.62057831 13.70598907 68.24609375 14.62890625 C67.86695328 15.57322006 67.48781281 16.51753387 67.09718323 17.49046326 C65.88133622 20.51612243 64.65955513 23.53934367 63.4375 26.5625 C62.6421775 28.53825024 61.84725188 30.51416028 61.05273438 32.49023438 C59.48097914 36.39809739 57.90706725 40.30508091 56.33154297 44.21142578 C52.86933031 52.80026125 49.43463541 61.40010809 46 70 C40.06 70 34.12 70 28 70 C23.94121869 62.19976029 20.58522956 54.24238661 17.375 46.0625 C16.32754097 43.41065714 15.27716828 40.7599725 14.2265625 38.109375 C13.96166016 37.43989334 13.69675781 36.77041168 13.42382812 36.0806427 C11.57546309 31.41922711 9.68707705 26.77559384 7.7734375 22.140625 C7.51682343 21.51776108 7.26020935 20.89489716 6.99581909 20.25315857 C5.77055301 17.28027457 4.54023073 14.30965512 3.30224609 11.34204102 C2.6498999 9.75927368 2.6498999 9.75927368 1.984375 8.14453125 C1.59991211 7.22003174 1.21544922 6.29553223 0.81933594 5.34301758 C0 3 0 3 0 0 Z " fill="#000000" transform="translate(270,477)"/>
<path d="M0 0 C-1.65024686 5.0353857 -3.34710795 10.03572063 -5.25390625 14.98046875 C-5.50011719 15.64691406 -5.74632812 16.31335938 -6 17 C-6.35320313 17.82886719 -6.70640625 18.65773438 -7.0703125 19.51171875 C-8.41401465 24.55342471 -8.33969248 29.42883751 -8.3125 34.625 C-8.30831055 35.70152832 -8.30412109 36.77805664 -8.29980469 37.88720703 C-8.14966444 48.42737167 -6.07365609 57.11034594 -1.8671875 66.74609375 C-0.94300253 69.14814206 -0.47702911 71.47561209 0 74 C-4.7587936 74.62989087 -9.12430201 75.10102373 -13.38070679 72.60253906 C-15.71620988 70.55245828 -17.83541522 68.40304651 -19.94921875 66.125 C-20.73271194 65.32594238 -21.51620514 64.52688477 -22.32344055 63.70361328 C-24.80527089 61.16049878 -27.24600373 58.58180109 -29.6875 56 C-31.36916664 54.26312509 -33.0533877 52.52871952 -34.74023438 50.796875 C-38.8568281 46.55939284 -42.94039095 42.29206728 -47 38 C-45.64145483 34.98930855 -44.09960077 32.81332506 -41.82641602 30.42480469 C-40.85884117 29.40419952 -40.85884117 29.40419952 -39.87171936 28.36297607 C-36.90052827 25.28896545 -33.92298824 22.22174481 -30.92700195 19.171875 C-29.35490872 17.56163598 -27.7945389 15.93986458 -26.24633789 14.30664062 C-24.00446253 11.94269832 -21.72816497 9.61733008 -19.44140625 7.296875 C-18.760746 6.56571472 -18.08008575 5.83455444 -17.37879944 5.08123779 C-11.88818679 -0.36351608 -7.58307199 -0.92216544 0 0 Z " fill="#FEFCFC" transform="translate(796,475)"/>
<path d="M0 0 C3.3 0 6.6 0 10 0 C8.515 1.485 8.515 1.485 7 3 C3.3125 2.6875 3.3125 2.6875 0 2 C0 1.34 0 0.68 0 0 Z " fill="#253D73" transform="translate(926,549)"/>
</svg>
